<svg width="25" height="24" viewBox="0 0 25 24" fill="none" xmlns="http://www.w3.org/2000/svg">
<path d="M3.22583 3L21.2258 21" stroke="#4B465C" stroke-width="1.75" stroke-linecap="round" stroke-linejoin="round"/>
<path d="M3.22583 3L21.2258 21" stroke="white" stroke-opacity="0.2" stroke-width="1.75" stroke-linecap="round" stroke-linejoin="round"/>
<path d="M10.8098 10.587C10.0283 11.3679 10.0279 12.6345 10.8088 13.416C11.5897 14.1975 12.8563 14.1979 13.6378 13.417" stroke="#4B465C" stroke-width="1.75" stroke-linecap="round" stroke-linejoin="round"/>
<path d="M10.8098 10.587C10.0283 11.3679 10.0279 12.6345 10.8088 13.416C11.5897 14.1975 12.8563 14.1979 13.6378 13.417" stroke="white" stroke-opacity="0.2" stroke-width="1.75" stroke-linecap="round" stroke-linejoin="round"/>
<path d="M9.34821 4.52374C8.8836 4.65665 8.6147 5.14104 8.74761 5.60565C8.88052 6.07027 9.36491 6.33916 9.82952 6.20625L9.34821 4.52374ZM12.2259 5L12.2228 5.875H12.2259V5ZM22.2259 12L22.9855 12.4342C23.1393 12.1652 23.1393 11.8349 22.9856 11.5659L22.2259 12ZM19.0803 14.8941C18.7523 15.249 18.7741 15.8026 19.129 16.1306C19.4838 16.4586 20.0374 16.4368 20.3654 16.0819L19.0803 14.8941ZM18.0721 18.0744C18.4727 17.8042 18.5785 17.2604 18.3083 16.8597C18.0381 16.4591 17.4942 16.3534 17.0936 16.6236L18.0721 18.0744ZM2.22583 12L1.46618 11.5658C1.3124 11.8348 1.31238 12.1651 1.46613 12.4341L2.22583 12ZM7.34901 7.38313C7.74894 7.11186 7.85323 6.56774 7.58196 6.16782C7.31069 5.76789 6.76658 5.66359 6.36665 5.93486L7.34901 7.38313ZM9.82952 6.20625C10.6077 5.98365 11.4134 5.87213 12.2228 5.87499L12.229 4.125C11.2547 4.12155 10.2849 4.25579 9.34821 4.52374L9.82952 6.20625ZM12.2259 5.875C15.8059 5.875 18.894 7.93317 21.4662 12.4341L22.9856 11.5659C20.2237 6.73283 16.6459 4.125 12.2259 4.125V5.875ZM21.4662 11.5658C20.7148 12.8803 19.9185 13.9872 19.0803 14.8941L20.3654 16.0819C21.3092 15.0608 22.1809 13.8417 22.9855 12.4342L21.4662 11.5658ZM17.0936 16.6236C15.6047 17.6277 13.9905 18.125 12.2258 18.125V19.875C14.3451 19.875 16.299 19.2703 18.0721 18.0744L17.0936 16.6236ZM12.2258 18.125C8.64584 18.125 5.55765 16.0668 2.98553 11.5659L1.46613 12.4341C4.22801 17.2672 7.80582 19.875 12.2258 19.875V18.125ZM2.98548 12.4342C4.30899 10.1188 5.77045 8.45387 7.34901 7.38313L6.36665 5.93486C4.50721 7.19613 2.88067 9.09118 1.46618 11.5658L2.98548 12.4342Z" fill="#4B465C"/>
<path d="M9.34821 4.52374C8.8836 4.65665 8.6147 5.14104 8.74761 5.60565C8.88052 6.07027 9.36491 6.33916 9.82952 6.20625L9.34821 4.52374ZM12.2259 5L12.2228 5.875H12.2259V5ZM22.2259 12L22.9855 12.4342C23.1393 12.1652 23.1393 11.8349 22.9856 11.5659L22.2259 12ZM19.0803 14.8941C18.7523 15.249 18.7741 15.8026 19.129 16.1306C19.4838 16.4586 20.0374 16.4368 20.3654 16.0819L19.0803 14.8941ZM18.0721 18.0744C18.4727 17.8042 18.5785 17.2604 18.3083 16.8597C18.0381 16.4591 17.4942 16.3534 17.0936 16.6236L18.0721 18.0744ZM2.22583 12L1.46618 11.5658C1.3124 11.8348 1.31238 12.1651 1.46613 12.4341L2.22583 12ZM7.34901 7.38313C7.74894 7.11186 7.85323 6.56774 7.58196 6.16782C7.31069 5.76789 6.76658 5.66359 6.36665 5.93486L7.34901 7.38313ZM9.82952 6.20625C10.6077 5.98365 11.4134 5.87213 12.2228 5.87499L12.229 4.125C11.2547 4.12155 10.2849 4.25579 9.34821 4.52374L9.82952 6.20625ZM12.2259 5.875C15.8059 5.875 18.894 7.93317 21.4662 12.4341L22.9856 11.5659C20.2237 6.73283 16.6459 4.125 12.2259 4.125V5.875ZM21.4662 11.5658C20.7148 12.8803 19.9185 13.9872 19.0803 14.8941L20.3654 16.0819C21.3092 15.0608 22.1809 13.8417 22.9855 12.4342L21.4662 11.5658ZM17.0936 16.6236C15.6047 17.6277 13.9905 18.125 12.2258 18.125V19.875C14.3451 19.875 16.299 19.2703 18.0721 18.0744L17.0936 16.6236ZM12.2258 18.125C8.64584 18.125 5.55765 16.0668 2.98553 11.5659L1.46613 12.4341C4.22801 17.2672 7.80582 19.875 12.2258 19.875V18.125ZM2.98548 12.4342C4.30899 10.1188 5.77045 8.45387 7.34901 7.38313L6.36665 5.93486C4.50721 7.19613 2.88067 9.09118 1.46618 11.5658L2.98548 12.4342Z" fill="white" fill-opacity="0.2"/>
</svg>
